<?xml version="1.0" encoding="UTF-8" standalone="no"?>
<!DOCTYPE svg PUBLIC "-//W3C//DTD SVG 1.1//EN" "http://www.w3.org/Graphics/SVG/1.1/DTD/svg11.dtd">
<svg width="100%" height="100%" viewBox="0 0 3000 3000" version="1.1" xmlns="http://www.w3.org/2000/svg" xmlns:xlink="http://www.w3.org/1999/xlink" xml:space="preserve" xmlns:serif="http://www.serif.com/" style="fill-rule:evenodd;clip-rule:evenodd;stroke-linejoin:round;stroke-miterlimit:2;">
    <g id="Layer1">
        <g transform="matrix(0.804878,0,0,1,343.755215,-5.465317)">
            <path d="M1373.684,978.947L1373.684,2273.7C1373.684,2307.532 1339.558,2335 1297.523,2335L1145.201,2335C1103.167,2335 1069.04,2307.532 1069.04,2273.7L1069.04,978.947C1069.04,945.115 1103.167,917.647 1145.201,917.647L1297.523,917.647C1339.558,917.647 1373.684,945.115 1373.684,978.947Z" style="fill:rgb(97,116,162);"/>
        </g>
        <g transform="matrix(0,-0.804878,0.688077,0,661.018235,2017.830147)">
            <path d="M1373.684,1006.736L1373.684,2245.911C1373.684,2295.08 1339.558,2335 1297.523,2335L1145.201,2335C1103.167,2335 1069.04,2295.08 1069.04,2245.911L1069.04,1006.736C1069.04,957.567 1103.167,917.647 1145.201,917.647L1297.523,917.647C1339.558,917.647 1373.684,957.567 1373.684,1006.736Z" style="fill:rgb(97,116,162);"/>
        </g>
        <g transform="matrix(0,-0.804878,0.522941,0,846.927844,2523.596373)">
            <path d="M1373.684,1034.869L1373.684,2217.778C1373.684,2282.474 1339.558,2335 1297.523,2335L1145.201,2335C1103.167,2335 1069.04,2282.474 1069.04,2217.778L1069.04,1034.869C1069.04,970.173 1103.167,917.647 1145.201,917.647L1297.523,917.647C1339.558,917.647 1373.684,970.173 1373.684,1034.869Z" style="fill:rgb(97,116,162);"/>
        </g>
        <g transform="matrix(0.881103,0,0,0.881103,492.633841,247.417229)">
            <circle cx="1641.471" cy="2037.492" r="146.471" style="fill:rgb(160,167,220);"/>
        </g>
        <g transform="matrix(1.526388,0,-0,1.200406,529.811372,235.304935)">
            <path d="M380.206,735.437C384.286,737.954 386.627,743.526 386.005,749.237C385.383,754.949 381.939,759.501 377.474,760.513C363.484,763.611 348.948,765.235 334.036,765.235C222.901,765.235 132.673,675.008 132.673,563.873C132.673,452.738 222.901,362.511 334.036,362.511C349.633,362.511 364.818,364.288 379.4,367.651C383.607,368.653 386.828,372.987 387.377,378.385C387.926,383.782 385.679,389.016 381.811,391.347C323.365,426.594 284.252,490.702 284.252,563.873C284.252,636.375 322.652,699.978 380.206,735.437Z" style="fill:rgb(160,167,220);"/>
        </g>
    </g>
</svg>
